<svg width="401" height="79" viewBox="0 0 401 79" fill="none" xmlns="http://www.w3.org/2000/svg">
<g filter="url(#filter0_d_42_106)">
<path d="M52.1309 37.0486C51.4859 34.3962 49.981 32.0271 47.3792 30.8479C46.805 30.5892 45.6511 30.3986 44.8918 30.3005C44.4237 30.2379 44.0182 29.9438 43.8141 29.5217L34.2019 9.52527C34.2019 9.52527 22.5622 50.5993 12.686 29.5517C12.686 29.5517 5.7055 42.5468 14.2509 47.6337C14.8224 47.9741 16.1477 48.4643 17.8868 48.5977C22.086 37.9119 31.162 30.2924 41.7567 30.6273C41.0546 30.8343 40.3715 31.0957 39.6993 31.3817C32.5881 34.4044 27.3193 40.6106 25.5885 48.2219C23.9175 55.5636 25.926 63.48 30.4082 69.4601C27.5888 59.9507 39.321 31.5913 50.2994 48.6113C50.2994 48.6113 51.9867 44.2161 52.1581 43.459C52.6153 41.4439 52.6507 39.1537 52.1391 37.0459H52.1336L52.1309 37.0486Z" fill="white"/>
<path d="M88.7936 24.4222V31.3618H80.1297V54.2833H71.3817V31.3618H62.7177V24.4222H88.7936ZM105.71 54.9563C96.4156 54.9563 90.5696 48.942 90.5696 39.3948C90.5696 29.7636 96.4156 23.7493 105.71 23.7493C115.005 23.7493 120.851 29.7636 120.851 39.3948C120.851 48.942 115.005 54.9563 105.71 54.9563ZM99.4859 39.3948C99.4859 44.9044 101.715 48.0167 105.71 48.0167C109.706 48.0167 111.935 44.9044 111.935 39.3948C111.935 33.8432 109.706 30.6888 105.71 30.6888C101.715 30.6888 99.4859 33.8432 99.4859 39.3948ZM150.506 43.18C150.506 50.414 145.417 54.9563 137.342 54.9563C129.224 54.9563 124.135 50.414 124.135 43.18V24.3801H132.883V43.18C132.883 46.4606 134.566 48.0167 137.342 48.0167C140.117 48.0167 141.758 46.4606 141.758 43.18V24.3801H150.506V43.18ZM169.383 24.4222C175.482 24.4222 180.613 27.3663 180.613 33.3385C180.613 37.334 178.636 39.7313 174.935 40.7407C178.299 41.0351 179.94 42.6333 180.192 45.9138L180.823 54.2833H172.075L171.654 47.512C171.486 45.1147 170.435 44.2735 167.701 44.2735H163.579V54.2833H154.831V24.4222H169.383ZM163.579 37.334H167.701C170.308 37.334 171.696 36.3246 171.696 34.3899C171.696 32.4132 170.308 31.3618 167.701 31.3618H163.579V37.334ZM184.567 24.4222H193.273L202.694 40.6145V24.4222H211.442V54.2833H202.442L193.315 39.0163V54.2833H184.567V24.4222ZM230.447 54.9563C221.152 54.9563 215.306 48.942 215.306 39.3948C215.306 29.7636 221.152 23.7493 230.447 23.7493C239.741 23.7493 245.588 29.7636 245.588 39.3948C245.588 48.942 239.741 54.9563 230.447 54.9563ZM224.222 39.3948C224.222 44.9044 226.451 48.0167 230.447 48.0167C234.442 48.0167 236.671 44.9044 236.671 39.3948C236.671 33.8432 234.442 30.6888 230.447 30.6888C226.451 30.6888 224.222 33.8432 224.222 39.3948ZM248.804 24.4222H257.552V54.2833H248.804V24.4222ZM270.39 43.8109C270.811 46.3344 272.577 47.9326 275.521 47.9326C277.582 47.9326 278.97 47.0914 278.886 45.5773C278.844 44.1053 277.582 43.3903 274.007 42.5492C266.184 40.7407 262.315 37.9228 262.315 33.1282C262.315 27.3663 267.236 23.7493 274.932 23.7493C281.83 23.7493 286.625 27.913 287.34 34.3899L278.802 34.6843C278.591 32.0767 277.077 30.5627 274.68 30.5627C272.409 30.5627 270.937 31.6562 271.105 33.2964C271.273 34.8946 273.124 35.5676 275.858 36.1143C283.512 37.5443 287.676 40.6145 287.676 45.4932C287.676 51.2972 282.713 54.788 275.437 54.788C267.488 54.788 262.189 50.7505 261.768 44.2315L270.39 43.8109ZM300.884 54.2833V24.4222H309.632V35.8199H317.833V24.4222H326.581V54.2833H317.833V42.7174H309.632V54.2833H300.884ZM330.22 54.2833L340.987 24.4222H350.155L360.922 54.2833H352.384L350.828 49.7411H340.272L338.716 54.2833H330.22ZM342.543 43.0118H348.557L345.571 34.0955L342.543 43.0118ZM376.499 54.9563C367.457 54.9563 361.358 48.3952 361.358 39.3948C361.358 30.3524 367.457 23.7493 376.499 23.7493C385.542 23.7493 391.64 30.3524 391.64 39.3948C391.64 44.4418 389.706 48.7317 386.425 51.5075L390.631 56.6386H384.701L382.472 53.9048C380.663 54.5777 378.644 54.9563 376.499 54.9563ZM370.275 39.3948C370.275 43.895 371.999 48.0167 376.499 48.0167C376.878 48.0167 377.214 47.9746 377.551 47.8905L373.597 43.0959H379.528L381.21 45.1568C382.219 43.6847 382.724 41.5818 382.724 39.3948C382.724 34.8946 381 30.6888 376.499 30.6888C371.999 30.6888 370.275 34.8946 370.275 39.3948Z" fill="white"/>
</g>
<defs>
<filter id="filter0_d_42_106" x="0.86985" y="0.395119" width="399.9" height="78.1951" filterUnits="userSpaceOnUse" color-interpolation-filters="sRGB">
<feFlood flood-opacity="0" result="BackgroundImageFix"/>
<feColorMatrix in="SourceAlpha" type="matrix" values="0 0 0 0 0 0 0 0 0 0 0 0 0 0 0 0 0 0 127 0" result="hardAlpha"/>
<feOffset/>
<feGaussianBlur stdDeviation="4.56507"/>
<feComposite in2="hardAlpha" operator="out"/>
<feColorMatrix type="matrix" values="0 0 0 0 1 0 0 0 0 1 0 0 0 0 1 0 0 0 0.25 0"/>
<feBlend mode="normal" in2="BackgroundImageFix" result="effect1_dropShadow_42_106"/>
<feBlend mode="normal" in="SourceGraphic" in2="effect1_dropShadow_42_106" result="shape"/>
</filter>
</defs>
</svg>
